<svg width="14" height="13" viewBox="0 0 14 13" fill="none" xmlns="http://www.w3.org/2000/svg">
<path d="M7.68982 5.88635C6.72948 4.9196 4.77192 4.94571 3.56236 6.16335C3.41909 6.30759 2.94681 6.78302 2.8286 6.90203C1.61285 8.1259 1.48965 9.98617 2.55343 11.0571C3.4701 11.9798 4.96905 12.0154 6.14399 11.2245C6.33257 11.0976 6.51275 10.9493 6.68089 10.78" stroke="#767368" stroke-linecap="round" stroke-linejoin="round"/>
<path d="M5.97757 7.60967C6.93791 8.57642 8.89547 8.55031 10.105 7.33265C10.2483 7.18843 10.7206 6.71298 10.8388 6.59401C12.0546 5.37011 12.1777 3.50985 11.114 2.43896C10.1973 1.51617 8.69838 1.48063 7.52341 2.27157C7.33483 2.39851 7.15462 2.54673 6.98649 2.71598" stroke="#767368" stroke-linecap="round" stroke-linejoin="round"/>
</svg>
