<?xml version="1.0" encoding="utf-8"?>
<!-- Generator: Adobe Illustrator 24.2.0, SVG Export Plug-In . SVG Version: 6.00 Build 0)  -->
<svg version="1.1" id="Layer_1" xmlns="http://www.w3.org/2000/svg" xmlns:xlink="http://www.w3.org/1999/xlink" x="0px" y="0px"
	 viewBox="0 0 145.04 114.52" style="enable-background:new 0 0 145.04 114.52;" xml:space="preserve">
<style type="text/css">
	.st0{fill:#2E4321;}
</style>
<path class="st0" d="M42.28,1.59C37.06,6.2,21.69,21.74,1.29,59.88c-0.34,0.64,0.22,1.41,0.93,1.26
	c7.92-1.66,38.54-6.21,32.18,24.65c-0.16,0.76,0.47,1.46,1.25,1.37c6.73-0.75,32.77-1.73,40.92,26.57c0,0-6.34-61.83-31.24-111.57
	C44.75,1.03,43.24,0.75,42.28,1.59z"/>
<path class="st0" d="M143.86,42.55L110.01,9.67c-0.67-0.65-1.79-0.46-2.18,0.39C103.77,18.7,86,59.28,82.3,113.74
	c0,0,9.48-30.93,35.27-29.13c0.86,0.06,1.54-0.73,1.35-1.58c-1.68-7.73-6.43-38.43,24.32-38.96
	C144.04,44.06,144.42,43.1,143.86,42.55z"/>
</svg>
